<?xml version="1.0" encoding="UTF-8"?>
<svg version="1.1" xmlns="http://www.w3.org/2000/svg" width="459" height="446">
<path d="M0 0 C1.12910477 -0.00226556 2.25820953 -0.00453111 3.42152959 -0.00686532 C7.18348086 -0.01316661 10.94539574 -0.01237845 14.70735168 -0.0115509 C17.41351964 -0.01400313 20.1196851 -0.01791991 22.82585144 -0.02172852 C29.40151617 -0.03000851 35.97717194 -0.03278216 42.55284145 -0.03334089 C47.90239926 -0.03381734 53.25195412 -0.03587848 58.601511 -0.03904152 C73.79494143 -0.04784105 88.98836483 -0.05246202 104.18179782 -0.05171105 C104.99960072 -0.05167109 105.81740361 -0.05163113 106.6599884 -0.05158997 C107.47879902 -0.05154909 108.29760964 -0.0515082 109.14123271 -0.05146609 C122.40302124 -0.05105987 135.66478136 -0.0606251 148.92656168 -0.07472833 C162.56959242 -0.0891216 176.21260934 -0.09599689 189.85564786 -0.09513456 C197.50472135 -0.09480359 205.15376504 -0.09750633 212.80283165 -0.10831261 C219.31658231 -0.11745656 225.83028966 -0.1195611 232.34404399 -0.11280318 C235.66138237 -0.10955743 238.97857067 -0.11051564 242.29591179 -0.11815643 C273.0539917 -0.18438202 300.90211022 3.3121557 324.38240051 25.13371277 C325.25509583 25.93808777 326.12779114 26.74246277 327.02693176 27.57121277 C345.69452628 45.48314754 355.91365036 69.83129139 356.57151222 95.59037018 C356.6751141 102.31458176 356.66456303 109.03876789 356.65705872 115.76359558 C356.66141177 118.34726101 356.66659689 120.93092515 356.67254639 123.5145874 C356.68522664 129.776558 356.68709543 136.03848559 356.68474612 142.30046687 C356.68295511 147.39676026 356.6847293 152.49304072 356.68897057 157.58933258 C356.68956575 158.31770944 356.69016094 159.0460863 356.69077417 159.79653518 C356.69198606 161.27677554 356.6932002 162.7570159 356.69441655 164.23725626 C356.7052666 178.08636716 356.70314177 191.93545364 356.6970317 205.7845659 C356.69186611 218.41683898 356.70311307 231.04903486 356.72212992 243.68129268 C356.74156552 256.69279287 356.74975424 269.70425665 356.74600667 282.71577144 C356.74410311 290.00439544 356.74649895 297.2929538 356.76072121 304.58156586 C356.77397057 311.44026243 356.77129777 318.29880294 356.75831032 325.15749931 C356.7559582 327.66231528 356.75862975 330.16714227 356.76693344 332.67194557 C356.85714045 362.01854169 352.92197903 390.59027293 332.38240051 413.13371277 C331.49810364 414.11082214 330.61380676 415.08793152 329.70271301 416.09465027 C322.72272792 423.55418531 315.22262124 429.06195185 306.38240051 434.13371277 C305.42978333 434.69832214 304.47716614 435.26293152 303.49568176 435.84465027 C288.54604358 444.05965368 271.59904396 446.2880119 254.79135132 446.27415466 C253.08377487 446.27861135 253.08377487 446.27861135 251.34170192 446.28315806 C247.54219092 446.29180215 243.74271158 446.29334968 239.94319153 446.29484558 C237.21248186 446.2989425 234.48177546 446.30448188 231.75106812 446.30989075 C224.34153949 446.32342989 216.93201632 446.32949209 209.52247739 446.33390141 C204.88779604 446.33667175 200.25311676 446.34091056 195.61843681 446.34540558 C182.76343829 446.35759328 169.90844141 446.36789305 157.05343723 446.37128067 C156.23185029 446.37150024 155.41026335 446.3717198 154.56377983 446.37194602 C153.74032556 446.3721643 152.91687129 446.37238258 152.06846386 446.37260747 C150.40007881 446.37305092 148.73169376 446.37349748 147.06330872 446.37394714 C146.23574768 446.37416857 145.40818665 446.37439 144.555548 446.37461814 C131.1631458 446.37856139 117.77079817 446.3960032 104.37841702 446.41930667 C90.59867181 446.44308876 76.8189539 446.45548566 63.03918785 446.45664859 C55.31453249 446.45756159 47.58994822 446.46321861 39.86531258 446.4814682 C33.28427063 446.49696221 26.70332174 446.50193543 20.12226499 446.4937301 C16.77209457 446.48985591 13.42226146 446.49226573 10.07209015 446.50478745 C-21.65454319 446.61634202 -48.30604088 441.96766031 -72.61759949 420.13371277 C-73.67720886 419.19785339 -73.67720886 419.19785339 -74.75822449 418.24308777 C-91.18894456 402.84737368 -101.36123402 379.59761239 -102.8037554 357.24974298 C-102.87511489 354.29688477 -102.88923728 351.34991944 -102.8782959 348.39622498 C-102.88212145 347.27836758 -102.88594699 346.16051019 -102.88988847 345.00877833 C-102.90013266 341.29679332 -102.89624268 337.58496548 -102.89225769 333.87297058 C-102.89660895 331.19768266 -102.90172978 328.52240589 -102.90774536 325.84712219 C-102.9204445 319.35427233 -102.92229201 312.86146392 -102.9199451 306.36860374 C-102.91815618 301.08584194 -102.91992383 295.80309264 -102.92416954 290.52033234 C-102.92476473 289.7661288 -102.92535992 289.01192527 -102.92597314 288.23486708 C-102.927185 286.70227919 -102.92839914 285.1696913 -102.92961552 283.63710341 C-102.9404729 269.28875525 -102.93833728 254.94043063 -102.93223067 240.59208116 C-102.92706473 227.49597425 -102.93831165 214.3999418 -102.95732889 201.30384961 C-102.97675093 187.82459751 -102.98495556 174.34538055 -102.98120564 160.86611438 C-102.9793 153.31148245 -102.98171854 145.75691384 -102.99592018 138.2022934 C-103.00789088 131.76984657 -103.00917573 125.33750203 -102.99713001 118.90505365 C-102.99128052 115.63008079 -102.99168916 112.35533107 -103.00213242 109.08036423 C-103.09252576 78.51389878 -97.7789578 51.47656435 -75.64103699 29.06340027 C-54.57496367 8.42479324 -29.13299368 -0.04344569 0 0 Z " fill="#7C62FD" transform="translate(102.61759948730469,-0.1337127685546875)"/>
<path d="M0 0 C0.33814748 2.47491114 0.48872339 4.71351688 0.51171875 7.1953125 C0.52966995 7.90275604 0.54762115 8.61019958 0.56611633 9.33908081 C0.62034442 11.60099303 0.65415316 13.86269284 0.6875 16.125 C0.72066226 17.65758173 0.7551509 19.19013538 0.79101562 20.72265625 C0.87607727 24.48161779 0.94282753 28.240515 1 32 C-4.65209455 31.21988121 -10.08329417 30.07771922 -15.62109375 28.71875 C-24.18525784 26.89700874 -32.64131599 26.72243461 -41.375 26.625 C-42.63828125 26.58761719 -43.9015625 26.55023438 -45.203125 26.51171875 C-53.13805306 26.43748346 -59.46780037 27.19856871 -66 32 C-68.48599038 35.72898557 -68.62508614 38.68197073 -68 43 C-64.33991272 51.31838017 -54.96011994 54.74245493 -46.98828125 57.9296875 C-45.08801723 58.66796408 -43.18504498 59.39841753 -41.27966309 60.12338257 C-1.3601484 75.37590704 -1.3601484 75.37590704 7 94 C12.21895068 107.55339663 11.73202578 123.74469039 6 137 C0.02972081 149.91072874 -9.97852703 156.98551973 -23 162 C-23.82113281 162.31710937 -24.64226562 162.63421875 -25.48828125 162.9609375 C-45.89077854 169.8874996 -69.10845278 167.74548746 -89.75 163.25 C-90.39831787 163.11754883 -91.04663574 162.98509766 -91.71459961 162.84863281 C-98.62033325 161.23267219 -103.22692933 158.38653534 -110 155 C-110 143.45 -110 131.9 -110 120 C-107.133125 121.093125 -104.26625 122.18625 -101.3125 123.3125 C-93.64604044 126.17143551 -86.07764733 128.57184453 -78 130 C-76.89591797 130.19529297 -76.89591797 130.19529297 -75.76953125 130.39453125 C-62.83278483 132.21489895 -48.9457942 132.50140647 -37.62890625 125.4140625 C-34.48600196 122.68568995 -34.02413049 120.21372719 -33.5625 116.125 C-33.35538407 112.82450746 -34.15102981 111.78299992 -36.1015625 108.98046875 C-38.88307664 105.85991311 -42.0595274 103.95833316 -45.8125 102.1875 C-46.48901611 101.85693604 -47.16553223 101.52637207 -47.86254883 101.18579102 C-54.15502546 98.2069021 -60.65308312 95.82522166 -67.1875 93.4375 C-83.20696947 87.5702869 -100.01231899 80.37877513 -108.125 64.1875 C-108.43695313 63.58292969 -108.74890625 62.97835937 -109.0703125 62.35546875 C-113.90186983 50.11417015 -114.21034961 33.71052905 -109.26171875 21.50390625 C-102.31812926 7.72421317 -91.81154966 -1.21841207 -77.14453125 -6.12109375 C-54.07262226 -12.56976396 -20.90116663 -13.93411109 0 0 Z " fill="#FDFDFE" transform="translate(211,139)"/>
<path d="M0 0 C0.87817383 0.35296143 1.75634766 0.70592285 2.66113281 1.06958008 C5 3 5 3 5.56762695 6.64526367 C5.56683665 8.15306381 5.5386577 9.66101019 5.48828125 11.16796875 C5.47766914 12.36018791 5.47766914 12.36018791 5.46684265 13.57649231 C5.43885874 16.11445361 5.3761184 18.65020607 5.3125 21.1875 C5.28742205 22.90817125 5.26460799 24.6288771 5.24414062 26.34960938 C5.18901967 30.56725697 5.10272412 34.78325407 5 39 C4.40050537 38.79318604 3.80101074 38.58637207 3.18334961 38.37329102 C0.43690277 37.42990362 -2.31272645 36.49614404 -5.0625 35.5625 C-6.00544922 35.23701172 -6.94839844 34.91152344 -7.91992188 34.57617188 C-25.20102683 28.73551968 -45.70771049 28.58218175 -62.375 36.375 C-72.75723368 42.00491938 -78.60372391 50.04670381 -82.4375 61.25 C-86.67096671 77.8006651 -85.62497712 97.67344694 -77.37109375 112.78515625 C-73.06566191 119.74008461 -68.37622179 123.49854742 -61 127 C-60.35417969 127.309375 -59.70835937 127.61875 -59.04296875 127.9375 C-51.13331499 131.52183111 -43.2851181 131.28105028 -34.75 131.3125 C-34.07659576 131.31511841 -33.40319153 131.31773682 -32.7093811 131.32043457 C-17.8733114 131.32662465 -6.66849886 129.07488838 7 123 C7 135.21 7 147.42 7 160 C-1.00320635 164.00160318 -8.386624 166.13380445 -17 168 C-18.01707031 168.22945312 -19.03414063 168.45890625 -20.08203125 168.6953125 C-44.45353725 173.32818245 -73.04280208 170.49634154 -94.2043457 156.82617188 C-112.27717813 144.50822793 -123.5690558 126.36823786 -127.8125 105.0625 C-132.53570119 79.21370806 -130.54900668 51.61998849 -116 29 C-113.78160667 25.89621687 -111.42601283 22.94255624 -109 20 C-108.278125 19.01 -107.55625 18.02 -106.8125 17 C-81.97292193 -12.20875467 -33.11147195 -13.83511184 0 0 Z " fill="#FEFDFE" transform="translate(362,136)"/>
<path d="M0 0 C1.85625 0.0309375 1.85625 0.0309375 3.75 0.0625 C3.75 0.3925 3.75 0.7225 3.75 1.0625 C2.80640625 1.22685547 2.80640625 1.22685547 1.84375 1.39453125 C-3.0153496 2.29463554 -7.54975652 3.3728686 -12.1328125 5.22265625 C-13.67439178 5.83416832 -15.23499319 6.39836159 -16.8046875 6.93359375 C-36.86640636 13.78185755 -55.65773606 28.95200512 -65.75 47.875 C-66.245 48.926875 -66.74 49.97875 -67.25 51.0625 C-67.65347656 51.8153125 -68.05695313 52.568125 -68.47265625 53.34375 C-71.40108439 58.87617401 -73.1506427 63.92043858 -74.25 70.0625 C-74.73562148 72.05348341 -75.24290223 74.03616577 -75.77622771 76.01491737 C-77.34411318 82.26387817 -77.5312671 88.21728358 -77.50396729 94.63818359 C-77.50708727 95.77475088 -77.51020725 96.91131817 -77.51342177 98.08232689 C-77.52137305 101.87525049 -77.51508922 105.66801282 -77.50878906 109.4609375 C-77.51040038 112.18654714 -77.51498973 114.91215001 -77.51940918 117.63775635 C-77.52828453 124.26302696 -77.52638947 130.88825217 -77.5205839 137.51352453 C-77.51606009 142.89986893 -77.51545761 148.28620063 -77.51763153 153.67254639 C-77.517938 154.4402789 -77.51824446 155.20801141 -77.51856022 155.99900854 C-77.51919969 157.55882915 -77.51984812 159.11864976 -77.5205054 160.67847037 C-77.52620325 175.29174802 -77.51965936 189.90500054 -77.50890467 204.51827407 C-77.49996965 217.0467005 -77.50152185 229.57508986 -77.51074219 242.10351562 C-77.52145445 256.66587496 -77.52565398 271.2282123 -77.51951766 285.79057503 C-77.51888059 287.34453455 -77.51825185 288.89849408 -77.51763153 290.45245361 C-77.5171687 291.59920565 -77.5171687 291.59920565 -77.51669653 292.76912439 C-77.51497246 298.14660508 -77.51787848 303.52407177 -77.52259064 308.90155029 C-77.5282101 315.45832075 -77.52666066 322.01504334 -77.51602915 328.57180834 C-77.51078672 331.91472103 -77.50977476 335.25748826 -77.51532745 338.60041046 C-77.52079906 342.22929173 -77.51392886 345.85794935 -77.50396729 349.48681641 C-77.50842873 350.53614538 -77.51289017 351.58547436 -77.51748681 352.66660118 C-77.48525094 358.72842941 -76.85034838 364.21445367 -75.25 370.0625 C-74.94320312 371.19816406 -74.63640625 372.33382813 -74.3203125 373.50390625 C-72.83418327 378.41058911 -71.36809383 383.12765976 -69 387.6875 C-67.25 391.0625 -67.25 391.0625 -67.25 394.0625 C-66.59 394.3925 -65.93 394.7225 -65.25 395.0625 C-62.25 399.5625 -62.25 399.5625 -62.25 402.0625 C-61.59 402.0625 -60.93 402.0625 -60.25 402.0625 C-59.22491731 403.713858 -58.23007287 405.38403792 -57.25 407.0625 C-52.76330177 412.60891362 -48.32375487 417.32480469 -42.25 421.0625 C-42.25 421.7225 -42.25 422.3825 -42.25 423.0625 C-40.93 423.3925 -39.61 423.7225 -38.25 424.0625 C-38.25 424.7225 -38.25 425.3825 -38.25 426.0625 C-36.6 426.3925 -34.95 426.7225 -33.25 427.0625 C-33.25 427.7225 -33.25 428.3825 -33.25 429.0625 C-32.0434375 429.43375 -32.0434375 429.43375 -30.8125 429.8125 C-28.08327539 430.77012267 -25.55761429 431.80026346 -22.9375 433 C-15.21293088 436.47476437 -7.56301462 438.53613465 0.75 440.0625 C2.62558977 440.43453901 4.50061257 440.80945007 6.375 441.1875 C7.21289062 441.35507812 8.05078125 441.52265625 8.9140625 441.6953125 C9.51992187 441.81648438 10.12578125 441.93765625 10.75 442.0625 C10.75 442.3925 10.75 442.7225 10.75 443.0625 C-9.0296338 444.77419908 -29.97530626 434.66547871 -45 422.625 C-46.7644326 421.12093496 -48.51550429 419.60099233 -50.25 418.0625 C-51.31347656 417.12470703 -51.31347656 417.12470703 -52.3984375 416.16796875 C-68.81727743 400.75502613 -78.99313885 377.53407884 -80.43615592 355.17853022 C-80.5075154 352.22567201 -80.5216378 349.27870667 -80.51069641 346.32501221 C-80.51452196 345.20715482 -80.51834751 344.08929742 -80.52228898 342.93756557 C-80.53253317 339.22558055 -80.52864319 335.51375271 -80.5246582 331.80175781 C-80.52900946 329.12646989 -80.5341303 326.45119312 -80.54014587 323.77590942 C-80.55284501 317.28305957 -80.55469252 310.79025116 -80.55234561 304.29739097 C-80.55055669 299.01462917 -80.55232434 293.73187987 -80.55657005 288.44911957 C-80.55716524 287.69491603 -80.55776043 286.9407125 -80.55837366 286.16365431 C-80.55958551 284.63106642 -80.56079965 283.09847853 -80.56201603 281.56589064 C-80.57287342 267.21754248 -80.5707378 252.86921786 -80.56463119 238.52086839 C-80.55946524 225.42476148 -80.57071217 212.32872903 -80.58972941 199.23263684 C-80.60915144 185.75338474 -80.61735607 172.27416778 -80.61360615 158.79490161 C-80.61170051 151.24026968 -80.61411905 143.68570107 -80.62832069 136.13108063 C-80.6402914 129.6986338 -80.64157624 123.26628926 -80.62953053 116.83384088 C-80.62368103 113.55886802 -80.62408967 110.2841183 -80.63453293 107.00915146 C-80.72492627 76.44268601 -75.41135831 49.40535158 -53.2734375 26.9921875 C-40.27514716 14.25765448 -25.70300647 5.9738988 -8.25 1.0625 C-7.5384375 0.85753906 -6.826875 0.65257812 -6.09375 0.44140625 C-4.01680899 0.01457727 -2.11816017 -0.03530267 0 0 Z " fill="#1C71FD" transform="translate(80.25,1.9375)"/>
<path d="M0 0 C5.42208565 0.54476214 9.46657931 2.45902607 14.1875 5 C14.93781494 5.40226807 15.68812988 5.80453613 16.46118164 6.21899414 C22.94704887 9.79593843 28.56824255 13.95196168 34 19 C35.30904297 20.2065625 35.30904297 20.2065625 36.64453125 21.4375 C55.31212577 39.34943477 65.53124985 63.69757862 66.18911171 89.45665741 C66.29271359 96.18086899 66.28216252 102.90505512 66.2746582 109.62988281 C66.27901126 112.21354824 66.28419638 114.79721239 66.29014587 117.38087463 C66.30282613 123.64284523 66.30469492 129.90477282 66.30234561 136.1667541 C66.3005546 141.26304749 66.30232878 146.35932795 66.30657005 151.45561981 C66.30716524 152.18399667 66.30776043 152.91237353 66.30837366 153.66282241 C66.30958555 155.14306277 66.31079968 156.62330313 66.31201603 158.10354349 C66.32286609 171.95265439 66.32074126 185.80174087 66.31463119 199.65085313 C66.30946559 212.28312621 66.32071256 224.91532209 66.33972941 237.54757991 C66.35916501 250.55908011 66.36735373 263.57054388 66.36360615 276.58205867 C66.3617026 283.87068267 66.36409844 291.15924103 66.37832069 298.44785309 C66.39157006 305.30654966 66.38889725 312.16509017 66.37590981 319.02378654 C66.37355768 321.52860251 66.37622923 324.0334295 66.38453293 326.5382328 C66.47473993 355.88482892 62.53957852 384.45656016 42 407 C41.11570312 407.97710937 40.23140625 408.95421875 39.3203125 409.9609375 C30.32201542 419.5757227 18.596109 428.69406097 6 433 C5.01 432.67 4.02 432.34 3 432 C5.96346786 429.52813545 8.54041689 428.33751639 12.25 427.3125 C13.14203125 427.06113281 14.0340625 426.80976563 14.953125 426.55078125 C15.96632813 426.27814453 15.96632813 426.27814453 17 426 C17 425.34 17 424.68 17 424 C17.88751953 423.54560547 17.88751953 423.54560547 18.79296875 423.08203125 C23.61865033 420.52355407 27.25637232 418.03917724 31 414 C32.17601866 412.96596081 33.3642792 411.94572808 34.5625 410.9375 C39.80912174 406.726838 39.80912174 406.726838 43 401 C44.33333333 399.66666667 45.66666667 398.33333333 47 397 C47.33 396.01 47.66 395.02 48 394 C48.66 394 49.32 394 50 394 C50.103125 393.484375 50.20625 392.96875 50.3125 392.4375 C51.84466271 387.00528677 54.48547338 382.02905325 57 377 C62.10181163 365.59595048 63.30811468 352.63737589 63.25396729 340.29133606 C63.25864726 338.61939219 63.25864726 338.61939219 63.26342177 336.91367167 C63.27134061 333.2129817 63.26510212 329.5124585 63.25878906 325.81176758 C63.26150159 323.14482652 63.26499218 320.4778966 63.26940918 317.81095886 C63.27826678 311.34050633 63.27639771 304.87010039 63.2705839 298.39964608 C63.26605421 293.1392315 63.26546013 287.8788299 63.26763153 282.61841393 C63.267938 281.86774005 63.26824446 281.11706618 63.26856022 280.34364462 C63.26919971 278.8183706 63.26984813 277.29309659 63.2705054 275.76782259 C63.27619774 261.49217169 63.26966743 247.21654655 63.25890467 232.94089987 C63.24996466 220.704158 63.25152702 208.46745408 63.26074219 196.23071289 C63.27145475 181.99904099 63.27565428 167.7673916 63.26951766 153.53571624 C63.2688806 152.01719042 63.26825186 150.4986646 63.26763153 148.98013878 C63.26732298 148.23310705 63.26701443 147.48607532 63.26669653 146.71640626 C63.26497296 141.46362478 63.26787728 136.21085764 63.27259064 130.95807838 C63.2782102 124.555091 63.27666022 118.15215262 63.26602915 111.74917082 C63.26078772 108.48523594 63.25977367 105.22139916 63.26532745 101.95746231 C63.27080045 98.4141314 63.26392727 94.87102938 63.25396729 91.32771301 C63.26065945 89.79180762 63.26065945 89.79180762 63.26748681 88.22487384 C63.23475736 82.21299989 62.5305944 76.80852451 61 71 C60 66.1875 60 66.1875 59.5625 64.04296875 C58.95835574 61.84875035 58.02037331 60.02850215 57 58 C56.61709538 56.00889599 56.27395385 54.00899487 56 52 C55.34 52 54.68 52 54 52 C53.731875 51.113125 53.46375 50.22625 53.1875 49.3125 C51.72663272 45.23744917 50.06638853 42.06638853 47 39 C46.690625 38.360625 46.38125 37.72125 46.0625 37.0625 C45.11825933 34.97222096 45.11825933 34.97222096 43.5625 33.5625 C42 32 42 32 40.75 29.75 C37.6211893 24.83329748 33.48206033 20.81177054 28.5625 17.6875 C27.716875 17.130625 26.87125 16.57375 26 16 C26 15.34 26 14.68 26 14 C25.278125 13.71125 24.55625 13.4225 23.8125 13.125 C22.884375 12.75375 21.95625 12.3825 21 12 C20.0925 11.690625 19.185 11.38125 18.25 11.0625 C17.5075 10.711875 16.765 10.36125 16 10 C15.67 9.01 15.34 8.02 15 7 C12.27564363 5.92414941 12.27564363 5.92414941 9 5 C2.53020134 2.53020134 2.53020134 2.53020134 0 0 Z " fill="#A625F3" transform="translate(393,6)"/>
<path d="M0 0 C-12.61640756 5.04656302 -24.89268396 6.15662484 -38.40454102 6.11352539 C-39.615298 6.11367142 -40.82605499 6.11381744 -42.07350159 6.1139679 C-45.36626938 6.11339397 -48.6589937 6.10840699 -51.9517529 6.10139394 C-55.40304958 6.09510792 -58.85434728 6.09455247 -62.3056488 6.09336853 C-68.82897837 6.09027061 -75.35229101 6.08207811 -81.87561315 6.07201904 C-89.30735888 6.06080992 -96.73910546 6.0553354 -104.17085755 6.05032361 C-119.44724814 6.03989409 -134.72362188 6.02232467 -150 6 C-150 5.67 -150 5.34 -150 5 C-143.33949681 3.99937788 -136.82446079 3.84252458 -130.09545898 3.82641602 C-128.34029968 3.8163855 -128.34029968 3.8163855 -126.54968262 3.80615234 C-124.01960202 3.79215006 -121.48950915 3.78024087 -118.95940971 3.77020454 C-114.95361837 3.75373158 -110.9478958 3.73070072 -106.94215393 3.70530701 C-95.55661867 3.63437467 -84.17104145 3.57430127 -72.78540039 3.52319336 C-66.4856284 3.49484133 -60.18593442 3.45944249 -53.88624436 3.41653961 C-50.55891919 3.39422941 -47.23168028 3.37684051 -43.90429497 3.36609077 C-40.19446716 3.35392758 -36.48489335 3.329775 -32.77514648 3.30297852 C-31.13459038 3.3020948 -31.13459038 3.3020948 -29.46089172 3.30119324 C-23.89619373 3.24797447 -19.26177259 2.82398357 -14 1 C-12.09013989 0.57253131 -10.17346976 0.17382977 -8.25 -0.1875 C-7.32703125 -0.36667969 -6.4040625 -0.54585938 -5.453125 -0.73046875 C-3 -1 -3 -1 0 0 Z " fill="#834DFC" transform="translate(395,440)"/>
<path d="M0 0 C1.85625 0.0309375 1.85625 0.0309375 3.75 0.0625 C3.75 0.3925 3.75 0.7225 3.75 1.0625 C2.80640625 1.22685547 2.80640625 1.22685547 1.84375 1.39453125 C-3.0153496 2.29463554 -7.54975652 3.3728686 -12.1328125 5.22265625 C-13.67439178 5.83416832 -15.23499319 6.39836159 -16.8046875 6.93359375 C-37.04148825 13.84162347 -55.82584025 29.15019825 -65.9375 48.25 C-66.5871875 49.6421875 -66.5871875 49.6421875 -67.25 51.0625 C-67.91666667 52.39583333 -68.58333333 53.72916667 -69.25 55.0625 C-69.91 54.7325 -70.57 54.4025 -71.25 54.0625 C-65.47427289 34.58019661 -46.50932798 18.70054139 -29.46118164 9.1730957 C-22.66917724 5.55397491 -15.65004648 3.14492514 -8.25 1.0625 C-7.5384375 0.85753906 -6.826875 0.65257812 -6.09375 0.44140625 C-4.01680899 0.01457727 -2.11816017 -0.03530267 0 0 Z " fill="#3172FD" transform="translate(80.25,1.9375)"/>
<path d="M0 0 C1.65 0 3.3 0 5 0 C7.91719678 6.01703294 7.19367192 12.26556236 6.99829102 18.77441406 C6.93768758 20.99313255 6.91445741 23.21029257 6.89257812 25.4296875 C6.85646 26.84901855 6.81812253 28.26829521 6.77734375 29.6875 C6.74890381 30.97011719 6.72046387 32.25273437 6.69116211 33.57421875 C5.83170933 37.83414152 4.34307468 39.30701051 1 42 C-2.87202684 43.73846103 -4.98590612 44.19127947 -9 43 C-7.21046815 42.16209211 -5.41830305 41.32980604 -3.625 40.5 C-2.62726563 40.0359375 -1.62953125 39.571875 -0.6015625 39.09375 C2 38 2 38 4 38 C3.67 26.12 3.34 14.24 3 2 C-2.445 4.475 -2.445 4.475 -8 7 C-11.6875 7.8125 -11.6875 7.8125 -14 8 C-14.33 7.34 -14.66 6.68 -15 6 C-12.87607494 5.3299166 -10.75082476 4.66403203 -8.625 4 C-7.44164062 3.62875 -6.25828125 3.2575 -5.0390625 2.875 C-2 2 -2 2 0 2 C0 1.34 0 0.68 0 0 Z " fill="#903CF9" transform="translate(365,258)"/>
<path d="M0 0 C1.98 0.66 3.96 1.32 6 2 C6 2.66 6 3.32 6 4 C7.65 4.33 9.3 4.66 11 5 C11 5.66 11 6.32 11 7 C11.804375 7.2475 12.60875 7.495 13.4375 7.75 C16.16672461 8.70762267 18.69238571 9.73776346 21.3125 10.9375 C29.03706912 14.41226437 36.68698538 16.47363465 45 18 C46.87558977 18.37203901 48.75061257 18.74695007 50.625 19.125 C51.46289062 19.29257812 52.30078125 19.46015625 53.1640625 19.6328125 C53.76992187 19.75398438 54.37578125 19.87515625 55 20 C55 20.33 55 20.66 55 21 C37.61611913 22.50437431 16.35414358 14.49749117 3.13671875 3.44140625 C1.75 2.0625 1.75 2.0625 0 0 Z " fill="#3B6DFD" transform="translate(36,424)"/>
<path d="M0 0 C7.4680518 -0.07004326 14.93606881 -0.12308335 22.40437603 -0.15543652 C25.87362603 -0.170978 29.34264848 -0.19200024 32.81176758 -0.22631836 C36.81593798 -0.26567374 40.81987588 -0.27980412 44.82421875 -0.29296875 C46.04767502 -0.30845261 47.27113129 -0.32393646 48.53166199 -0.33988953 C56.72875421 -0.34146327 64.09969186 0.8241476 72 3 C72 3.99 72 4.98 72 6 C71.28714844 5.79503906 70.57429688 5.59007812 69.83984375 5.37890625 C68.88207031 5.10949219 67.92429687 4.84007812 66.9375 4.5625 C65.99777344 4.29566406 65.05804688 4.02882813 64.08984375 3.75390625 C56.5692407 1.91891714 49.21612862 1.79615643 41.50390625 1.68359375 C40.31522446 1.66281265 39.12654266 1.64203156 37.90184021 1.62062073 C34.12211632 1.55548013 30.34232569 1.49640575 26.5625 1.4375 C23.99283177 1.39428101 21.42317017 1.35066566 18.85351562 1.30664062 C12.56908001 1.19983527 6.2845787 1.09800429 0 1 C0 0.67 0 0.34 0 0 Z " fill="#8732F9" transform="translate(319,1)"/>
<path d="M0 0 C0 3.6322292 -1.11225435 4.54509387 -3.55517578 7.07397461 C-4.07321777 7.58581299 -4.59125977 8.09765137 -5.125 8.625 C-5.6597998 9.15552979 -6.19459961 9.68605957 -6.74560547 10.23266602 C-14.7561375 17.91607242 -25.46879517 25.39994177 -36 29 C-36.99 28.67 -37.98 28.34 -39 28 C-36.03653214 25.52813545 -33.45958311 24.33751639 -29.75 23.3125 C-28.85796875 23.06113281 -27.9659375 22.80976563 -27.046875 22.55078125 C-26.37140625 22.36902344 -25.6959375 22.18726563 -25 22 C-25 21.34 -25 20.68 -25 20 C-24.40832031 19.69707031 -23.81664062 19.39414062 -23.20703125 19.08203125 C-18.38134967 16.52355407 -14.74362768 14.03917724 -11 10 C-9.82398134 8.96596081 -8.6357208 7.94572808 -7.4375 6.9375 C-4.83096668 4.73503626 -2.36760204 2.46230613 0 0 Z " fill="#9929F7" transform="translate(435,410)"/>
<path d="M0 0 C5.73349249 -0.40953518 9.15364412 0.15261717 14.140625 3.02734375 C16.07934678 4.04150704 17.86577037 4.55143404 20 5 C20 5.66 20 6.32 20 7 C21.32 7.66 22.64 8.32 24 9 C23.67 21.21 23.34 33.42 23 46 C22.67 46 22.34 46 22 46 C22 33.79 22 21.58 22 9 C18.93039792 7.77215917 15.90498977 6.58495824 12.79296875 5.4921875 C12.04208984 5.22792969 11.29121094 4.96367187 10.51757812 4.69140625 C9.74865234 4.42199219 8.97972656 4.15257812 8.1875 3.875 C7.00510742 3.45927734 7.00510742 3.45927734 5.79882812 3.03515625 C3.86622095 2.35581555 1.93315616 1.67777691 0 1 C0 0.67 0 0.34 0 0 Z " fill="#A45FFB" transform="translate(345,130)"/>
<path d="M0 0 C2.07855313 2.64434839 3.69007879 5.24434587 5.1875 8.25 C10.35069658 17.52856796 17.71549423 22.35374864 26.828125 27.23828125 C29.42130131 28.67857991 31.69600853 30.14654152 34 32 C33.01 32.33 32.02 32.66 31 33 C31 32.34 31 31.68 31 31 C30.4225 30.855625 29.845 30.71125 29.25 30.5625 C27.16666667 30.04166667 25.08333333 29.52083333 23 29 C23 28.34 23 27.68 23 27 C21.35 26.67 19.7 26.34 18 26 C18 25.34 18 24.68 18 24 C17.01 24 16.02 24 15 24 C13.61096733 22.37946188 12.28667172 20.70294787 11 19 C10.21625 18.278125 9.4325 17.55625 8.625 16.8125 C4.14167494 12.00893744 0 6.70386274 0 0 Z " fill="#5566FD" transform="translate(100,197)"/>
<path d="M0 0 C0 0.33 0 0.66 0 1 C-0.6290625 1.10957031 -1.258125 1.21914063 -1.90625 1.33203125 C-6.7528928 2.22982803 -11.27795018 3.30575242 -15.8515625 5.14453125 C-19.38743911 6.55245303 -22.99156839 7.77418975 -26.58203125 9.03515625 C-29.19710999 9.98203062 -29.19710999 9.98203062 -32 12 C-32.99 12 -33.98 12 -35 12 C-35 11.34 -35 10.68 -35 10 C-11.71627714 -0.6631855 -11.71627714 -0.6631855 0 0 Z " fill="#3E6EFE" transform="translate(84,2)"/>
<path d="M0 0 C0.33 0 0.66 0 1 0 C1.33 11.22 1.66 22.44 2 34 C9.94728645 37.62344974 9.94728645 37.62344974 18 41 C17.01 41.66 16.02 42.32 15 43 C14.01 42.67 13.02 42.34 12 42 C12 41.34 12 40.68 12 40 C10.948125 39.814375 10.948125 39.814375 9.875 39.625 C6.82343613 38.96161655 3.94659062 38.02788045 1 37 C1 36.34 1 35.68 1 35 C0.34 34.67 -0.32 34.34 -1 34 C-0.67 22.78 -0.34 11.56 0 0 Z " fill="#3754FD" transform="translate(100,260)"/>
<path d="M0 0 C-12.55656695 5.02262678 -24.54374669 6.20491756 -38 6 C-35.10481535 4.37775855 -32.78670569 3.68962922 -29.48828125 3.40234375 C-28.64845703 3.32306641 -27.80863281 3.24378906 -26.94335938 3.16210938 C-26.07517578 3.08798828 -25.20699219 3.01386719 -24.3125 2.9375 C-22.57907755 2.78384131 -20.84597702 2.62649077 -19.11328125 2.46484375 C-18.34798096 2.399021 -17.58268066 2.33319824 -16.79418945 2.26538086 C-14.98058224 2.17925993 -14.98058224 2.17925993 -14 1 C-12.21916334 0.57654372 -10.4245111 0.21034196 -8.625 -0.125 C-7.64789063 -0.31320312 -6.67078125 -0.50140625 -5.6640625 -0.6953125 C-3 -1 -3 -1 0 0 Z " fill="#933EFA" transform="translate(395,440)"/>
<path d="M0 0 C5.45622246 0.54047487 9.5064331 2.50002972 14.25 5.0625 C14.99564209 5.46009521 15.74128418 5.85769043 16.50952148 6.26733398 C22.57015766 9.58442364 27.85823741 13.36357034 33 18 C32.01 18.33 31.02 18.66 30 19 C27.8125 17.6875 27.8125 17.6875 26 16 C26 15.34 26 14.68 26 14 C25.278125 13.71125 24.55625 13.4225 23.8125 13.125 C22.884375 12.75375 21.95625 12.3825 21 12 C20.0925 11.690625 19.185 11.38125 18.25 11.0625 C17.5075 10.711875 16.765 10.36125 16 10 C15.67 9.01 15.34 8.02 15 7 C12.27564363 5.92414941 12.27564363 5.92414941 9 5 C2.53020134 2.53020134 2.53020134 2.53020134 0 0 Z " fill="#9C2CF8" transform="translate(393,6)"/>
<path d="M0 0 C0.33 0 0.66 0 1 0 C1 12.21 1 24.42 1 37 C-3.36568695 36.12686261 -5.42547265 35.34897511 -9 33 C-8.01 32.505 -8.01 32.505 -7 32 C-5.02 32.99 -3.04 33.98 -1 35 C-0.67 23.45 -0.34 11.9 0 0 Z " fill="#882CFB" transform="translate(368,140)"/>
<path d="M0 0 C6.76215448 0.40939975 12.67162748 1.56953809 19 4 C18.67 4.66 18.34 5.32 18 6 C16.93072266 5.69255859 16.93072266 5.69255859 15.83984375 5.37890625 C10.56023251 3.89379353 5.45288884 2.60587654 0 2 C0 1.34 0 0.68 0 0 Z " fill="#993CF9" transform="translate(373,1)"/>
<path d="M0 0 C4.40958108 0.66607439 8.26572186 2.26624729 12.3125 4.0625 C13.28026367 4.48499023 13.28026367 4.48499023 14.26757812 4.91601562 C15.84698358 5.6062743 17.42376493 6.30253198 19 7 C18.01 7.66 17.02 8.32 16 9 C15.01 8.67 14.02 8.34 13 8 C13 7.34 13 6.68 13 6 C12.29875 5.87625 11.5975 5.7525 10.875 5.625 C7.82343613 4.96161655 4.94659062 4.02788045 2 3 C2 2.34 2 1.68 2 1 C1.34 0.67 0.68 0.34 0 0 Z " fill="#5267FD" transform="translate(99,294)"/>
<path d="M0 0 C0.66 0.66 1.32 1.32 2 2 C0.5903653 2.70180531 -0.82807641 3.38593958 -2.25 4.0625 C-3.03890625 4.44535156 -3.8278125 4.82820313 -4.640625 5.22265625 C-7 6 -7 6 -11 5 C-7.37 3.35 -3.74 1.7 0 0 Z " fill="#913FFB" transform="translate(367,296)"/>
<path d="M0 0 C0.66 0.66 1.32 1.32 2 2 C-4.625 5.125 -4.625 5.125 -8 4 C-5.42910583 1.88819408 -3.36939433 0.33693943 0 0 Z " fill="#9C3FFA" transform="translate(404,434)"/>
<path d="M0 0 C0.99 0.33 1.98 0.66 3 1 C1.63875 1.61875 1.63875 1.61875 0.25 2.25 C-2.79665618 3.89050718 -4.71126806 5.44718361 -7 8 C-6.875 6.25 -6.875 6.25 -6 4 C-3.125 1.6875 -3.125 1.6875 0 0 Z " fill="#555AFD" transform="translate(150,167)"/>
<path d="M0 0 C-3.18762365 2.12508244 -5.26512223 2.5020163 -9 3 C-9.33 2.34 -9.66 1.68 -10 1 C-3.71428571 -1.42857143 -3.71428571 -1.42857143 0 0 Z " fill="#9448FB" transform="translate(360,263)"/>
<path d="M0 0 C3.35433109 0.94933899 6.69246505 1.89748835 10 3 C10 3.66 10 4.32 10 5 C6.05140217 4.4359146 3.29120954 3.2568294 0 1 C0 0.67 0 0.34 0 0 Z " fill="#9441FA" transform="translate(359,172)"/>
</svg>
